<svg xmlns="http://www.w3.org/2000/svg" viewBox="0 0 64 64" aria-hidden="true" role="img"><g fill="none" stroke="currentColor" stroke-width="3.2" stroke-linecap="round" stroke-linejoin="round"><path d="M18 33c0-10 6-18 14-18s14 8 14 18v10c0 8-6 13-14 13s-14-5-14-13V33z"/><path d="M19 24l-8-9c-2 9 0 16 7 19"/><path d="M45 24l8-9c2 9 0 16-7 19"/><path d="M26 35h.2M38 35h.2"/><path d="M32 39v5"/><path d="M27 45c3 2 7 2 10 0"/></g><path d="M32 39l-4-3h8l-4 3z" fill="currentColor" opacity=".22"/></svg>